<?xml version="1.0" encoding="utf-8"?>
<!-- Generator: Adobe Illustrator 21.1.0, SVG Export Plug-In . SVG Version: 6.00 Build 0)  -->
<svg version="1.1" id="Layer_1" xmlns="http://www.w3.org/2000/svg" xmlns:xlink="http://www.w3.org/1999/xlink" x="0px" y="0px"
	 viewBox="0 0 200 200" style="enable-background:new 0 0 200 200;" xml:space="preserve">
<style type="text/css">
	.st0{fill:#404040;}
</style>
<g id="Cart_-_Default_3_">
	<path class="st0" d="M131,111H90.1c-1,0-1.9-0.6-2.2-1.5L73.7,75.4h-7.4c-1.3,0-2.4-1.1-2.4-2.4s1.1-2.4,2.4-2.4h9.1
		c1,0,1.9,0.6,2.2,1.5l14.1,34.1H131c1.3,0,2.4,1.1,2.4,2.4C133.4,109.9,132.4,111,131,111z"/>
	<path class="st0" d="M98.1,129.4c-4.4,0-8-3.6-8-8s3.6-8,8-8s8,3.6,8,8S102.5,129.4,98.1,129.4z M98.1,118.3
		c-1.7,0-3.1,1.4-3.1,3.1s1.4,3.1,3.1,3.1s3.1-1.4,3.1-3.1S99.8,118.3,98.1,118.3z"/>
	<path class="st0" d="M125.2,129.4c-4.4,0-8-3.6-8-8s3.6-8,8-8s8,3.6,8,8S129.6,129.4,125.2,129.4z M125.2,118.3
		c-1.7,0-3.1,1.4-3.1,3.1s1.4,3.1,3.1,3.1c1.7,0,3.1-1.4,3.1-3.1S127,118.3,125.2,118.3z"/>
	<path class="st0" d="M126.4,102.1h-30c-1,0-1.9-0.6-2.3-1.5l-7.3-18.6c-0.3-0.7-0.2-1.6,0.3-2.2c0.5-0.7,1.2-1.1,2-1.1h44.5
		c0.8,0,1.5,0.4,2,1.1c0.5,0.7,0.5,1.5,0.3,2.2l-7.3,18.6C128.3,101.4,127.4,102.1,126.4,102.1z M98.1,97.2h26.7l5.4-13.8H92.7
		L98.1,97.2z"/>
</g>
</svg>
